<svg xmlns="http://www.w3.org/2000/svg" viewBox="0 0 41 84" width="41" height="84"><g fill="none" fill-rule="evenodd"><path stroke="#EA7A72" stroke-width="1.823" d="M20 64a4 4 0 1 1-8 0 4 4 0 0 1 8 0z"/><path stroke="#9FC1F9" stroke-width="1.823" d="M22 5a4.001 4.001 0 0 1-8 0 4 4 0 1 1 8 0z"/><path fill="#92DDA6" fill-rule="nonzero" d="M6 15a3 3 0 1 1-6.001-.001A3 3 0 0 1 6 15"/><path fill="#FDDF87" fill-rule="nonzero" d="M23 81a3 3 0 1 1-6 .003 3 3 0 0 1 6-.004"/><path fill="#9FC1F9" fill-rule="nonzero" d="M28 36a3 3 0 1 1-6.001-.001A3 3 0 0 1 28 36"/><path fill="#FDDF87" fill-rule="nonzero" d="M37 18a3 3 0 1 1-6 0 3 3 0 0 1 6 0"/><path fill="#CDD0D5" d="M36.5 57.489h-1.82v-3.108h1.82v3.108zm0 6.071h-1.82v-3.108h1.82v3.108zm.551-3.68v-1.82h3.062v1.82h-3.062zm-5.984 0v-1.82h3.063v1.82h-3.063z"/></g></svg>