<svg xmlns="http://www.w3.org/2000/svg" viewBox="0 0 50 84" width="50" height="84"><g fill="none" fill-rule="evenodd"><path stroke="#FBC730" stroke-width="1.823" d="M49 5a4 4 0 1 1-8 0 4 4 0 0 1 8 0z"/><path stroke="#92DDA6" stroke-width="1.823" d="M9 33a4.001 4.001 0 0 1-8 0 4 4 0 1 1 8 0z"/><path fill="#EA7A72" fill-rule="nonzero" d="M26.785 38.136a2.865 2.865 0 1 1-5.73 0 2.865 2.865 0 0 1 5.73 0"/><path fill="#9FC1F9" fill-rule="nonzero" d="M29 18a3 3 0 1 1-5.999.11A3 3 0 0 1 29 18"/><path fill="#FDDF87" d="M12 56a3 3 0 1 1-6 0 3 3 0 0 1 6 0"/><path fill="#92DDA6" d="M25 80a3 3 0 1 1-5.999.11A3 3 0 0 1 25 80"/><path fill="#CDD0D5" d="M24.502 57.489h-1.823v-3.108h1.823v3.108zm0 6.071h-1.823v-3.108h1.823v3.108zm.549-3.678v-1.823h3.062v1.823h-3.062zm-5.984 0v-1.823h3.063v1.823h-3.063z"/></g></svg>